<svg version="1.1" id="Layer_1" xmlns="http://www.w3.org/2000/svg" xmlns:xlink="http://www.w3.org/1999/xlink" x="0px" y="0px"
   width="24px" height="24px"
   xml:space="preserve"
   >  <svg vertical-align="middle" horizontal-align="center" width="100%" height="100%" fill="#000000" min-height="8" min-width="6" dirty="true" measured-width="24" measured-height="24" x="0" y="0" total-width="18" total-height="24">                 <!--<g _tmplitem="50"  id="icon-" width="100%" height="100%" resize-mode="aspect" >-->                 <path width="100%" height="100%" resize-mode="aspect" id="icon-pin-add" d="M 12 0 C 7.032 0 3 4.032 3 9 c 0 6 9 15 9 15 s 9 -9 9 -15 C 21 4.032 16.968 0 12 0 Z M 12 15 c -3.3135 0 -6 -2.688 -6 -6 s 2.6865 -6 6 -6 s 6 2.688 6 6 S 15.3135 15 12 15 Z M 13.5 7.5 h 3 v 3 H 13.5 v 3 H 10.5 V 10.5 H 7.5 V 7.5 h 3 V 4.5 h 3 V 7.5 Z" min-width="6" min-height="8" dirty="true" measured-width="18" measured-height="24"></path>                 <!--</g>-->         </svg>  </svg>