<svg version="1.1" id="Layer_1" xmlns="http://www.w3.org/2000/svg" xmlns:xlink="http://www.w3.org/1999/xlink" x="0px" y="0px"
   width="24px" height="24px"
   xml:space="preserve"
   >   <svg vertical-align="middle" horizontal-align="center" width="100%" height="100%" fill="#000000" min-height="8" min-width="7.5" dirty="true" measured-width="24" measured-height="24" x="0" y="0" total-width="21" total-height="24">                 <!--<g _tmplitem="13"  id="icon-" width="100%" height="100%" resize-mode="aspect" >-->                 <path width="100%" height="100%" resize-mode="aspect" id="icon-address-book-contacts" d="M 20.6 0 h -16.8 c -0.7686 0 -1.4 0.675 -1.4 1.5 v 3 H 4.5 c 0.385 0 0.7 0.3375 0.7 0.75 S 4.885 6 4.5 6 H 1.7 C 1.315 6 1 6.3375 1 6.75 S 1.315 7.5 1.7 7.5 h 0.7 v 3 H 4.5 c 0.385 0 0.7 0.3375 0.7 0.75 S 4.885 12 4.5 12 H 1.7 C 1.315 12 1 12.3375 1 12.75 S 1.315 13.5 1.7 13.5 h 0.7 v 3 H 4.5 c 0.385 0 0.7 0.3375 0.7 0.75 S 4.885 18 4.5 18 H 1.7 c -0.385 0 -0.7 0.3375 -0.7 0.75 S 1.315 19.5 1.7 19.5 h 0.7 v 3 c 0 0.825 0.6314 1.5 1.4 1.5 h 16.8 c 0.7714 0 1.4 -0.675 1.4 -1.5 V 1.5 C 22 0.675 21.3714 0 20.6 0 Z M 17.7916 15 H 9.7066 c 0 0 -0.0658 -1.749 0.1498 -2.1135 C 10.1 12.48 10.9176 12.228 11.7268 11.8665 s 1.001 -0.486 1.001 -0.486 l 0.0056 -0.831 c 0 0 -0.301 -0.2505 -0.3962 -1.032 C 12.1482 9.576 11.948 9.2145 11.9368 9.024 c -0.0112 -0.183 0.028 -0.693 0.2576 -0.642 C 12.1482 7.9995 12.1146 7.6545 12.1314 7.4715 c 0.0602 -0.6675 0.672 -1.3725 1.6156 -1.3725 s 1.5582 0.7035 1.6184 1.3725 c 0.0168 0.183 -0.0196 0.528 -0.0658 0.9105 c 0.2296 -0.051 0.2674 0.459 0.2576 0.642 c -0.0112 0.1905 -0.21 0.552 -0.399 0.4935 c -0.0924 0.7815 -0.3962 1.032 -0.3962 1.032 l 0.0084 0.831 c 0 0 0.1918 0.1245 0.9982 0.486 c 0.8092 0.3615 1.6268 0.6135 1.8704 1.02 C 17.8574 13.251 17.7916 15 17.7916 15 Z" min-width="7.5" min-height="8" dirty="true" measured-width="21" measured-height="24"></path>                 <!--</g>-->         </svg>  </svg>