<svg version="1.1" id="Layer_1" xmlns="http://www.w3.org/2000/svg" xmlns:xlink="http://www.w3.org/1999/xlink" x="0px" y="0px"
   width="24px" height="24px"
   xml:space="preserve"
   >   <svg vertical-align="middle" horizontal-align="center" width="100%" height="100%" fill="#000000" min-height="8.5" min-width="8.5" dirty="true" measured-width="24" measured-height="24" x="0" y="0" total-width="24" total-height="24">                 <!--<g _tmplitem="12"  id="icon-" width="100%" height="100%" resize-mode="aspect" >-->                 <path width="100%" height="100%" resize-mode="aspect" id="icon-circle-question" d="M 19.7308 4.26686 c -4.2692 -4.26686 -11.1924 -4.26686 -15.4616 0 s -4.2692 11.1937 0 15.4634 s 11.1952 4.26686 15.4616 0 C 24 15.4634 24 8.53371 19.7308 4.26686 Z M 11.5406 20.7949 c -1.18716 0 -2.15743 -0.958972 -2.15743 -2.13771 c 0 -1.21013 0.947444 -2.15769 2.15743 -2.15769 c 1.1786 0 2.13746 0.967535 2.13746 2.15769 C 13.678 19.8173 12.6992 20.7949 11.5406 20.7949 Z M 13.0416 13.3 v 1.18445 c 0 0.576525 -0.225446 0.801998 -0.801902 0.801998 H 10.693 c -0.576457 0 -0.800476 -0.225473 -0.800476 -0.801998 V 11.8373 c 0 -0.669283 0.684899 -0.869069 1.28989 -1.0446 c 0.148395 -0.0442383 0.30107 -0.0884766 0.448038 -0.13985 C 12.4152 10.3703 12.9004 10.0193 12.9004 9.14449 c 0 -0.283981 0 -1.14592 -1.40119 -1.14592 c -0.863258 0 -1.64946 0.331074 -2.11748 0.529433 C 9.11629 8.63931 8.98502 8.6964 8.8509 8.6964 c -0.269679 0 -0.526516 -0.21691 -0.565042 -0.440956 L 7.74792 6.84838 C 7.66944 6.68569 7.66944 6.55869 7.66944 6.45451 c 0 -1.03746 3.22759 -1.60828 4.29774 -1.60828 c 2.69536 0 4.50606 1.73671 4.50606 4.31966 C 16.4732 11.9629 14.3743 12.8377 13.0416 13.3 Z" min-width="8.5" min-height="8.5" dirty="true" measured-width="24" measured-height="24"></path>                 <!--</g>-->         </svg>  </svg>