<svg version="1.1" id="Layer_1" xmlns="http://www.w3.org/2000/svg" xmlns:xlink="http://www.w3.org/1999/xlink" x="0px" y="0px"
   width="186px" height="116px"
   xml:space="preserve"
   >          <rect explicit-width="100%" explicit-height="100%" fill="#E6E6E6" min-width="0" min-height="0" dirty="true" width="189" measured-width="189" height="116" measured-height="116" x="0" y="0"></rect>    <svg width="80%" height="80%" vertical-align="middle" horizontal-align="center" min-height="9.170999526977539" min-width="13.654998779296875" dirty="true" measured-width="151.2" measured-height="92.8" x="19" y="12" total-width="132.88888888888889" total-height="92">     <g width="100%" height="100%" resize-mode="aspect" min-width="13.654998779296875" min-height="9.170999526977539" dirty="true" measured-width="132.88888888888889" x="9" y="0" measured-height="92" transform="matrix(9.66679 0 0 10.0316 -13.398 -18.3478)">           <circle fill="#B3B3B3" cx="13.82" cy="3.981" r="2.152"></circle>           <g>               <g>                   <path fill="#B3B3B3" d="M12.882,9.522c-0.501-0.869-1.32-2.189-1.821-3.059c-0.501-0.869-1.32-0.869-1.821,0                       C9.215,6.507,9.181,6.563,9.154,6.609C8.738,5.907,8.328,5.215,8.012,4.666c-0.688-1.194-1.815-1.194-2.503,0                       C4.82,5.86,3.694,7.725,3.005,8.918C2.317,10.112,2.88,11,4.257,11h7.715C12.974,11,13.383,10.391,12.882,9.522z"></path>               </g>           </g>       </g>    </svg>         </svg>