<?xml version="1.0" encoding="utf-8"?>
<svg version="1.1" id="Layer_1" xmlns="http://www.w3.org/2000/svg" xmlns:xlink="http://www.w3.org/1999/xlink" x="0px" y="0px"
   width="225px" height="160px"
   xml:space="preserve"
   >         <g width="100%" height="100%" min-width="30" min-height="16" dirty="true" x="0" y="0" measured-width="225" measured-height="160" transform="matrix(0.396012 0 0 0.437156 0.527092 0.635636)">          <rect x="-0.166" y="0.047" fill="#E6E6E6" width="567" height="363"></rect>          <path fill="#FFFFFF" stroke="#666666" stroke-width="2" d="M465.623-0.047l43.168,87.308c1.396,2.819,4.23,4.453,7.181,4.453           c1.191,0,2.403-0.268,3.544-0.832c3.962-1.958,5.585-6.756,3.624-10.715L483.483-0.05L465.623-0.047z M-0.33,259.155l56.589-27.683           l55.226,111.508l-50.901,20.113l105.974,0.13l265.07-112.366l22.05,41.723l-139.844,70.597l28.618,0.047l118.704-56.356           l29.789,56.68h44.038l-25.03-49.992l-13.55-25.546l68.931-34.769v-17.848l-76.407,38.396l-20.438-38.596l96.846-41.518v-43.432           l-16.561,7.542c-0.732-2.37-148.195-53.317-149.244-53.235l-41.558-78.879l51.862-26.125h-36l-23.32,11.77l-5.289-11.77h-45.131           l55.779,107.762l-127.759,63.269l35.523,72.541c1.39,2.836,4.234,4.509,7.195,4.509c1.182,0,2.382-0.251,3.514-0.806           c3.97-1.939,5.613-6.725,3.669-10.692l-28.514-58.181l113.845-56.287l49.522,93.707L126.25,336.729L63.536,210.102l-63.867,31.246            M409.994,124.276l121.288,40.953l-81.425,34.478L409.994,124.276z"></path>          <polygon stroke="#000000" stroke-width="1" fill="#B3B3B3" points="0.168,199.939 75.126,164.934 135.759,282.954 207.053,254.736 165.742,146.931 301.168,82.253           263.688,-0.046 0,-0.426  "></polygon>          <path fill="#B3B3B3" stroke="#000000" stroke-width="2" d="M358.501,220.682c0-15.867-12.761-28.729-28.501-28.729           c-15.739,0-28.499,12.862-28.499,28.729c0,10.961,6.874,18.166,12.271,23.586c8.775,8.819,15.896,34.685,15.896,34.685           s7.343-25.442,14.913-34.218C350.093,238.35,358.501,232.021,358.501,220.682z"></path>          <circle stroke="#000000" stroke-width="2" cx="329.583" cy="220.965" r="12"></circle>  </g>  <rect explicit-width="100%" explicit-height="100%" fill="none" stroke="#231F20" stroke-width="1" min-width="1" min-height="1" dirty="true" measured-width="225" measured-height="160" width="224" height="159" x="0.5" y="0.5"></rect></svg>