<svg version="1.1" id="Layer_1" xmlns="http://www.w3.org/2000/svg" xmlns:xlink="http://www.w3.org/1999/xlink" x="0px" y="0px"
   width="24px" height="24px"
   xml:space="preserve"
   >  <svg vertical-align="middle" horizontal-align="center" width="100%" height="100%" fill="#000000" min-height="8" min-width="7.5" dirty="true" measured-width="24" measured-height="24" x="0" y="0" total-width="21" total-height="24">                 <!--<g _tmplitem="54"  id="icon-" width="100%" height="100%" resize-mode="aspect" >-->                 <path width="100%" height="100%" resize-mode="aspect" id="icon-phone-call" d="M 21.2537 21.4244 c -0.403601 0.541422 -1.47987 1.84604 -2.74732 2.33546 l -0.0835525 0.02753 l -0.0269067 0.00611777 c -0.938904 0.206475 -7.19401 -0.0627071 -12.2652 -6.24318 C 1 11.2995 1.16852 3.90161 1.54238 3.091 C 2.14708 1.79098 3.47684 0.79378 4.01922 0.425185 c 0.178434 -0.119296 0.368197 -0.201886 0.563625 -0.24624 c 0.808618 -0.178945 1.53793 0.32883 2.01801 0.663778 l 0.227999 0.154474 c 0.754805 0.471068 1.47421 5.11598 1.45155 5.48917 C 8.24358 7.18226 7.61481 7.80933 6.11086 9.24854 c 0.464495 1.58909 1.76168 3.71654 2.79972 4.98139 c 0.960146 1.16849 2.99656 3.15065 4.48493 3.89243 c 1.32126 -1.26332 1.94861 -1.84604 2.51932 -1.97298 l 0.27898 -0.0229416 c 0.345539 0.0214122 4.53166 1.3505 4.87154 2.21616 l 0.113292 0.266123 C 21.4675 19.245 22 20.4303 21.2537 21.4244 Z" min-width="7.5" min-height="8" dirty="true" measured-width="21" measured-height="24"></path>                 <!--</g>-->         </svg>  </svg>