<svg version="1.1" id="Layer_1" xmlns="http://www.w3.org/2000/svg" xmlns:xlink="http://www.w3.org/1999/xlink" x="0px" y="0px"
   width="24px" height="24px"
   xml:space="preserve"
   >   <svg vertical-align="middle" horizontal-align="center" width="100%" height="100%" fill="#000000" min-height="8" min-width="8" dirty="true" measured-width="24" measured-height="24" x="0" y="0" total-width="24" total-height="24">                 <!--<g _tmplitem="14"  id="icon-" width="100%" height="100%" resize-mode="aspect" >-->                 <path width="100%" height="100%" resize-mode="aspect" id="icon-emoticon-happy" d="M 12 0 C 5.373 0 0 5.373 0 12 s 5.373 12 12 12 s 12 -5.373 12 -12 S 18.627 0 12 0 Z M 12 22.5 c -5.7885 0 -10.5 -4.71 -10.5 -10.5 c 0 -5.7885 4.7115 -10.5 10.5 -10.5 s 10.5 4.7115 10.5 10.5 C 22.5 17.79 17.7885 22.5 12 22.5 Z M 19.5 13.5 c -2.2005 2.7405 -3.7125 4.5 -7.5 4.5 s -5.2995 -1.7595 -7.5 -4.5 h 0.165 c 1.8945 1.8525 4.4805 3 7.335 3 s 5.4405 -1.1475 7.335 -3 H 19.5 Z M 7.5 8.25 C 7.5 7.008 8.1705 6 9 6 s 1.5 1.008 1.5 2.25 S 9.8295 10.5 9 10.5 S 7.5 9.492 7.5 8.25 Z M 13.5 8.25 C 13.5 7.008 14.1705 6 15 6 s 1.5 1.008 1.5 2.25 S 15.8295 10.5 15 10.5 S 13.5 9.492 13.5 8.25 Z" min-width="8" min-height="8" dirty="true" measured-width="24" measured-height="24"></path>                 <!--</g>-->         </svg>  </svg>